<?xml version="1.0" encoding="UTF-8"?>
<!DOCTYPE svg PUBLIC "-//W3C//DTD SVG 1.1//EN" "http://www.w3.org/Graphics/SVG/1.1/DTD/svg11.dtd">
<!-- Creator: CorelDRAW X8 -->
<svg xmlns="http://www.w3.org/2000/svg" xml:space="preserve" width="300px" height="300px" version="1.1" style="shape-rendering:geometricPrecision; text-rendering:geometricPrecision; image-rendering:optimizeQuality; fill-rule:evenodd; clip-rule:evenodd"
viewBox="0 0 100 100"
 xmlns:xlink="http://www.w3.org/1999/xlink">
 <defs>
  <style type="text/css">
   <![CDATA[
    .fil0 {fill:black;fill-rule:nonzero}
   ]]>
  </style>
 </defs>
 <g id="Vrstva_x0020_1">
  <metadata id="CorelCorpID_0Corel-Layer"/>
  <path class="fil0" d="M256 44c-28,-28 -66,-44 -106,-44 -40,0 -78,16 -106,44 -28,28 -44,66 -44,106 0,40 16,78 44,106 28,28 66,44 106,44 40,0 78,-16 106,-44 28,-28 44,-66 44,-106 0,-40 -16,-78 -44,-106zm-106 242c-75,0 -136,-61 -136,-136 0,-75 61,-136 136,-136 75,0 136,61 136,136 0,75 -61,136 -136,136z"/>
  <path class="fil0" d="M105 61l0 -21 -13 0 0 24c-9,3 -14,6 -14,7 3,0 8,-1 14,0l0 126c-14,26 6,66 6,66 0,0 -15,-43 17,-63 30,-19 132,-10 132,-68 -1,-82 -95,-81 -142,-71zm42 79c-5,22 -28,33 -42,42l0 -109c23,5 51,23 42,67z"/>
 </g>
</svg>
